<?xml version="1.0" encoding="utf-8"?>
<!-- Generator: Adobe Illustrator 19.1.1, SVG Export Plug-In . SVG Version: 6.00 Build 0)  -->
<svg version="1.1" xmlns="http://www.w3.org/2000/svg" xmlns:xlink="http://www.w3.org/1999/xlink" x="0px" y="0px"
	 viewBox="0 0 190 110" style="enable-background:new 0 0 190 110;" xml:space="preserve">
<style type="text/css">
	.st0{fill-rule:evenodd;clip-rule:evenodd;fill:#A4CD3C;}
	.st1{fill-rule:evenodd;clip-rule:evenodd;fill:#BBBDBF;}
	.st2{fill-rule:evenodd;clip-rule:evenodd;fill:#3F3E40;}
</style>
<g id="Layer_3">
</g>
<g id="Layer_2">
</g>
<g id="Layer_1">
	<g>
		<g>
			<path class="st0" d="M153.2,24c21.9,17.1,35.9,43.7,35.9,73.6h-40.6c0-18.7-9.8-35.2-24.4-44.6L153.2,24z"/>
			<path class="st1" d="M2.3,97.6c0-29.9,14.1-56.5,35.9-73.6L67.3,53c-14.7,9.4-24.4,25.8-24.4,44.6H2.3z"/>
			<path class="st1" d="M41.4,21.5c15.3-10.9,34-17.4,54.3-17.4c20.3,0,39,6.4,54.3,17.4L120.5,51c-7.4-4-15.9-6.2-24.9-6.2
				c-9,0-17.4,2.2-24.8,6.2L41.4,21.5z"/>
		</g>
	</g>
	<path class="st2" d="M93,98.3c-2-3.2-1-7.4,2.2-9.3l37.3-16.1l-30.2,27.7l0,0C99.1,102.5,95,101.5,93,98.3L93,98.3z"/>
</g>
</svg>
